<svg xmlns="http://www.w3.org/2000/svg" viewBox="0 0 32 32">
  <rect width="32" height="32" rx="7" fill="#1e3a5f"/>
  <defs>
    <clipPath id="letters">
      <text x="16" y="23" text-anchor="middle" font-family="Georgia, serif" font-size="18" font-weight="bold">LC</text>
    </clipPath>
  </defs>
  <!-- Flamme visible uniquement dans les lettres -->
  <path d="M16 3 C16 3 21 10 20 15 C23 11 22 7 22 7 C26 13 25 20 21 23 C22 20 21 17 19.5 16 C20 20 17.5 24 16 26 C14.5 24 12 20 12.5 16 C11 17 10 20 11 23 C7 20 6 13 10 7 C10 7 9 11 12 15 C11 10 16 3 16 3Z" fill="#e74c3c" clip-path="url(#letters)"/>
  <path d="M16 12 C16 12 18.5 16 18 19.5 C19.5 17.5 19 15 19 15 C20.5 17.5 20 20.5 18 22.5 C18.5 21 18 19 17 18 C17.5 20 16 22.5 16 22.5 C16 22.5 14.5 20 15 18 C14 19 13.5 21 14 22.5 C12 20.5 11.5 17.5 13 15 C13 15 12.5 17.5 14 19.5 C13.5 16 16 12 16 12Z" fill="#f39c12" clip-path="url(#letters)"/>
</svg>
