<svg xmlns="http://www.w3.org/2000/svg" viewBox="0 0 32 32">
  <rect width="32" height="32" rx="7" fill="#1e3a5f"/>
  <path d="M16 4 C16 4 20 9 19.5 13 C21.5 10.5 21 7 21 7 C24.5 11.5 24 17 20.5 20 C21.5 18 21 15.5 19.5 14.5 C20 18 17.5 21.5 16 23 C14.5 21.5 12 18 12.5 14.5 C11 15.5 10.5 18 11.5 20 C8 17 7.5 11.5 11 7 C11 7 10.5 10.5 12.5 13 C12 9 16 4 16 4Z" fill="#e74c3c"/>
  <path d="M16 13 C16 13 18 16 17.5 18.5 C18.5 17 18 15 18 15 C19.5 17 19 19.5 17.5 21 C17.5 20 17 18.5 16.5 18 C17 19.5 16 21.5 16 21.5 C16 21.5 15 19.5 15.5 18 C15 18.5 14.5 20 14.5 21 C13 19.5 12.5 17 14 15 C14 15 13.5 17 14.5 18.5 C14 16 16 13 16 13Z" fill="#f39c12"/>
</svg>
